<svg xmlns="http://www.w3.org/2000/svg" viewBox="0 0 128 128">
  <path d="M64 12C44 32 28 52 20 76c-4 12-4 28 8 36 8 5 20 4 28-4l8-8 8 8c8 8 20 9 28 4 12-8 12-24 8-36-8-24-24-44-44-64l-8-8-8 8z"/>
  <path d="M64 28l-8 8c-12 16-20 32-24 48-2 8 0 16 4 20 6 4 14 2 20-4l8-8V28z"/>
  <style>
    svg > path:first-child { fill: #b91c2e; }
    svg > path:last-child { fill: #fff; }
    @media (prefers-color-scheme: dark) {
      svg > path:first-child { fill: #e84a5f; }
      svg > path:last-child { fill: #1a1a2e; }
    }
  </style>
</svg>
